<?xml version="1.0" standalone="no"?>
<!DOCTYPE svg PUBLIC "-//W3C//DTD SVG 20010904//EN"
 "http://www.w3.org/TR/2001/REC-SVG-20010904/DTD/svg10.dtd">
<svg version="1.0" xmlns="http://www.w3.org/2000/svg"
 width="245.000000pt" height="245.000000pt" viewBox="0 0 245.000000 245.000000"
 preserveAspectRatio="xMidYMid meet">
<metadata>
Created by potrace 1.11, written by Peter Selinger 2001-2013
</metadata>
<g transform="translate(0.000000,245.000000) scale(0.100000,-0.100000)"
fill="#000000" stroke="none">
<path d="M2225 1930 c-10 -11 -13 -20 -7 -20 7 0 12 -5 12 -11 0 -5 -8 -9 -17
-8 -30 5 -119 -48 -141 -83 l-21 -33 20 -7 c23 -9 17 -28 -9 -28 -9 0 -25 -12
-35 -26 -15 -20 -16 -28 -6 -40 9 -12 10 -17 0 -27 -10 -9 -11 -9 -6 4 5 13
-2 18 -32 23 -32 5 -41 2 -58 -18 -19 -23 -81 -44 -68 -23 3 5 0 7 -8 5 -8 -3
-13 -12 -11 -22 3 -18 -9 -21 -25 -5 -7 7 -15 5 -27 -7 -13 -13 -14 -19 -5
-24 20 -13 3 -38 -31 -45 -25 -5 -30 -11 -25 -26 4 -12 2 -19 -7 -19 -20 1
-45 23 -49 44 -6 28 -24 30 -47 5 -17 -17 -28 -20 -55 -15 -37 7 -65 -13 -51
-35 5 -8 3 -9 -5 -5 -7 5 -10 14 -7 22 8 21 -15 17 -41 -8 -35 -33 -27 -5 11
38 32 36 38 72 12 75 -6 1 -18 3 -26 4 -8 1 -21 3 -29 4 -8 0 -11 7 -7 17 5
14 4 15 -9 4 -9 -7 -14 -19 -11 -25 3 -8 -16 -17 -52 -25 -65 -14 -82 -25 -82
-51 0 -15 -5 -17 -31 -12 -32 6 -54 -11 -41 -32 10 -14 9 -95 0 -95 -9 0 -10
3 -12 52 -2 35 -26 81 -26 49 0 -7 -5 -9 -10 -6 -5 3 -10 2 -10 -4 0 -5 6 -11
13 -14 6 -2 9 -8 5 -12 -11 -12 -40 16 -34 32 3 8 1 11 -4 8 -6 -3 -10 -14
-10 -24 0 -9 -5 -22 -12 -29 -9 -9 -7 -16 7 -32 10 -11 19 -33 20 -50 2 -26 0
-29 -12 -18 -8 6 -12 20 -10 30 8 30 -9 29 -32 -3 -19 -25 -29 -30 -52 -27
-16 3 -29 2 -29 -1 1 -17 30 -41 51 -42 17 -1 19 -3 7 -6 -23 -6 -23 -6 9 -61
19 -34 22 -43 9 -33 -10 8 -29 37 -42 63 -35 69 -59 91 -84 78 -14 -7 -20 -7
-20 0 0 5 6 10 14 10 8 0 17 7 20 16 6 14 17 14 61 -3 14 -5 57 36 50 47 -3 5
1 22 9 38 8 16 12 32 9 36 -4 3 2 13 13 20 14 11 16 17 7 26 -9 10 -17 8 -36
-6 -26 -19 -38 -42 -40 -78 -3 -33 -25 -29 -37 8 -13 39 -33 51 -50 30 -17
-19 -31 -18 -23 3 4 10 2 14 -5 9 -6 -3 -13 -2 -17 3 -3 6 -13 7 -22 4 -12 -5
-15 -2 -10 9 4 13 -3 18 -32 23 -21 3 -42 5 -47 4 -21 -4 -34 2 -34 16 0 8 9
15 20 15 11 0 20 7 20 15 0 22 -10 19 -47 -17 -23 -22 -33 -27 -33 -16 0 27
-37 29 -55 2 -16 -25 -39 -31 -51 -13 -7 12 15 31 27 23 4 -2 7 5 6 16 -1 23
-17 28 -17 5 0 -8 -4 -15 -10 -15 -18 0 -10 50 10 62 11 7 20 20 20 29 0 35
15 28 25 -12 11 -45 37 -71 54 -54 10 10 14 79 8 124 -2 14 -14 29 -27 35 -19
9 -25 7 -38 -12 -8 -12 -20 -22 -27 -22 -7 0 -12 -14 -11 -36 1 -40 -5 -46
-72 -64 -24 -6 -52 -20 -63 -31 -24 -24 -29 -24 -54 5 -17 21 -24 23 -45 14
-14 -6 -31 -12 -38 -14 -8 -1 -20 -11 -27 -20 -18 -25 -44 -3 -43 36 1 37 -19
62 -43 55 -11 -4 -19 -2 -19 4 0 6 -4 11 -10 11 -5 0 -10 -6 -10 -12 0 -23 18
-41 42 -44 12 -1 27 -3 31 -3 5 -1 6 -5 3 -10 -3 -4 -17 -6 -31 -3 -14 2 -25
0 -25 -7 0 -5 -7 -8 -15 -5 -8 4 -15 1 -15 -6 0 -7 -7 -10 -15 -6 -9 3 -24 -2
-35 -11 -14 -12 -34 -16 -70 -14 -47 2 -65 -9 -40 -24 6 -4 8 -15 5 -25 -4
-12 2 -24 16 -33 21 -15 21 -16 3 -41 -11 -14 -27 -28 -36 -31 -22 -8 -12 -35
13 -35 12 0 16 5 13 14 -3 8 3 19 13 24 16 9 19 7 21 -14 1 -13 -3 -24 -9 -24
-6 0 -3 -7 6 -16 10 -11 13 -19 6 -23 -14 -9 -4 -21 57 -65 51 -37 64 -54 40
-53 -63 2 -68 -1 -68 -45 0 -25 8 -57 20 -76 11 -18 20 -39 20 -46 0 -8 5 -16
10 -18 6 -2 13 -21 16 -42 2 -21 7 -43 10 -47 8 -14 24 -10 24 6 0 8 10 33 22
56 19 37 24 41 52 36 25 -4 33 -1 42 17 7 16 7 27 0 39 -8 13 -5 21 11 37 31
28 57 27 47 -2 -5 -13 -7 -34 -5 -48 1 -14 3 -46 3 -72 1 -40 4 -48 19 -48 10
0 25 -11 34 -24 25 -38 -2 -75 -33 -44 -9 9 -12 9 -12 -1 0 -8 -6 -11 -15 -7
-11 4 -15 -2 -15 -24 0 -16 5 -32 10 -35 6 -4 8 -10 5 -15 -3 -5 -1 -11 5 -15
6 -3 17 -22 25 -42 13 -31 17 -34 31 -22 26 22 44 19 55 -8 5 -13 7 -28 4 -33
-2 -4 4 -15 15 -25 14 -12 17 -25 13 -45 -4 -23 1 -36 30 -65 20 -21 38 -42
40 -48 2 -6 11 -8 21 -4 13 5 17 14 12 32 -5 18 -2 25 9 25 8 0 15 -5 15 -12
0 -6 7 -4 18 5 24 22 28 21 60 -3 18 -15 28 -18 36 -10 8 8 5 17 -12 30 -13
11 -20 24 -16 34 8 21 28 20 49 -1 14 -14 18 -14 25 -2 7 11 12 11 22 1 6 -6
19 -12 28 -12 8 0 32 -9 51 -19 27 -15 39 -17 48 -8 14 14 14 40 -1 55 -17 17
-3 25 22 12 12 -6 23 -10 24 -8 1 2 10 15 19 31 14 22 22 26 43 21 19 -5 26
-2 30 12 5 19 42 46 96 70 30 14 68 8 83 -14 7 -8 23 -12 40 -10 24 2 29 7 27
24 -1 12 4 26 11 32 19 16 74 -3 88 -30 8 -15 17 -18 39 -13 17 4 49 -1 76
-10 51 -17 97 -8 108 21 4 9 21 14 53 14 26 0 53 4 58 8 12 8 13 82 2 99 -12
19 46 51 82 45 18 -2 44 -20 66 -44 23 -24 43 -37 52 -34 8 4 30 -1 50 -10
l34 -17 29 34 c19 22 30 29 30 19 6 -81 20 -131 20 -72 0 40 17 51 23 15 l4
-28 8 33 c4 17 11 32 16 32 12 0 12 -2 -13 -57 -11 -26 -20 -55 -19 -65 3 -21
-18 -33 -32 -19 -9 9 -8 17 1 32 12 19 11 19 -8 9 -23 -13 -23 -12 -9 -43 8
-18 17 -23 36 -19 39 7 52 39 58 146 5 87 3 102 -15 133 -11 19 -20 43 -20 53
0 20 -44 60 -66 60 -8 0 -14 -9 -14 -20 0 -13 -7 -20 -20 -20 -11 0 -20 4 -20
9 0 5 -10 7 -22 3 -18 -4 -20 -2 -14 14 5 10 13 56 20 102 11 82 11 83 65 133
29 27 59 48 65 46 18 -6 36 25 21 38 -20 16 -26 77 -10 99 12 15 17 17 29 7
12 -10 14 -9 12 11 -2 13 -7 31 -11 41 -4 11 -3 23 4 30 8 8 11 8 11 -3 0 -7
6 -21 13 -29 13 -15 41 -135 36 -156 -4 -25 3 -44 28 -69 26 -26 109 -86 119
-86 10 0 3 30 -12 44 -8 9 -12 21 -9 26 4 6 1 17 -5 25 -6 8 -10 22 -8 32 2
10 -5 26 -16 37 -13 13 -15 20 -6 26 8 5 4 10 -12 15 -12 4 -28 7 -33 6 -6 0
-18 14 -28 32 -15 27 -16 38 -6 67 7 19 18 42 25 51 10 11 11 24 4 50 -13 46
-13 92 2 107 9 9 5 12 -17 13 -38 2 -36 2 -60 -7 -16 -6 -18 -5 -7 7 17 18 15
49 -3 49 -8 0 -15 7 -15 15 0 9 6 12 15 9 8 -4 15 -1 15 5 0 6 11 16 25 21 28
11 33 28 10 36 -8 4 -15 15 -15 25 0 24 -12 24 -35 -1z m-1515 -205 c0 -8 -9
-15 -20 -15 -20 0 -26 11 -13 23 12 13 33 7 33 -8z m-152 -140 c17 -4 32 -11
32 -17 0 -6 -13 -7 -32 -3 -55 11 -68 16 -68 26 0 6 8 8 18 5 9 -2 32 -7 50
-11z m-125 -22 c14 -16 14 -22 -4 -61 -24 -52 -36 -51 -14 1 18 44 19 53 2 39
-14 -12 -57 -5 -57 9 0 5 15 9 33 9 24 0 28 3 17 10 -8 5 -10 10 -4 10 6 0 18
-8 27 -17z m-175 -41 c2 -7 -5 -15 -15 -19 -10 -3 -27 -13 -38 -22 -19 -15
-19 -15 -4 4 9 11 19 28 22 38 7 20 28 19 35 -1z m362 -1 c0 -5 -5 -22 -11
-38 -7 -15 -11 -38 -10 -50 0 -14 -5 -23 -14 -23 -21 0 -29 20 -13 33 23 20
40 67 25 72 -38 11 -39 13 -9 14 17 1 32 -3 32 -8z m103 2 c-7 -2 -19 -2 -25
0 -7 3 -2 5 12 5 14 0 19 -2 13 -5z m-63 -19 c0 -2 -7 -4 -15 -4 -8 0 -15 4
-15 10 0 5 7 7 15 4 8 -4 15 -8 15 -10z m-405 -44 c-3 -5 -12 -10 -18 -10 -7
0 -6 4 3 10 19 12 23 12 15 0z m-85 -24 c0 -18 -16 -29 -30 -21 -13 8 -1 35
16 35 8 0 14 -6 14 -14z m240 0 c0 -8 -5 -18 -11 -22 -14 -8 -33 11 -25 25 10
16 36 13 36 -3z m-50 -5 c0 -5 -8 -8 -17 -7 -10 2 -31 0 -48 -4 -20 -5 -35 -2
-43 7 -11 11 -3 13 48 13 33 0 60 -4 60 -9z m130 -1 c0 -5 -2 -10 -4 -10 -3 0
-8 5 -11 10 -3 6 -1 10 4 10 6 0 11 -4 11 -10z m-159 -90 c-23 -34 -39 -65
-37 -69 3 -4 -4 -8 -15 -8 -11 -1 -19 1 -17 6 8 19 103 140 107 136 2 -3 -15
-32 -38 -65z m289 36 c0 -8 11 -21 25 -30 14 -9 23 -21 20 -26 -9 -14 25 -60
44 -60 14 0 14 2 1 11 -12 8 -10 9 7 4 12 -3 36 1 54 10 32 17 49 10 49 -20 0
-5 -4 -4 -9 3 -6 11 -15 11 -49 0 -23 -7 -42 -17 -42 -22 0 -22 35 -46 67 -46
25 0 33 -4 33 -17 0 -36 -13 -41 -48 -23 -18 10 -33 21 -33 24 1 3 -1 6 -4 6
-3 0 -10 0 -16 0 -7 0 -9 -9 -6 -21 3 -13 1 -19 -6 -16 -7 2 -13 16 -15 31 -3
24 -1 27 17 21 16 -5 20 -3 15 9 -3 8 -12 12 -19 10 -7 -3 -16 -1 -19 4 -3 5
-18 7 -32 4 -20 -3 -25 -2 -19 7 4 7 13 10 21 7 20 -8 26 10 12 34 -17 27 -36
25 -70 -7 -33 -31 -34 -41 -10 -59 9 -7 12 -14 5 -14 -6 0 -15 5 -18 10 -3 6
-15 10 -26 10 -10 0 -19 5 -19 12 0 6 -7 20 -17 30 -9 10 -11 18 -5 18 6 0 15
-6 19 -12 18 -28 52 -10 89 47 15 24 15 27 0 44 -17 19 -22 46 -6 36 6 -3 10
-12 10 -19z m1530 9 c0 -8 -6 -15 -14 -15 -17 0 -28 14 -19 24 12 12 33 6 33
-9z m-1565 -34 c24 -12 33 -20 22 -20 -10 -1 -27 4 -37 9 -13 7 -21 7 -25 0
-3 -5 -1 -10 6 -10 7 0 9 -3 6 -6 -4 -4 -13 -1 -21 5 -21 18 -59 4 -53 -19 3
-12 0 -17 -8 -14 -7 3 -15 -2 -19 -12 -6 -15 -9 -14 -26 6 -24 28 -25 31 -4
23 14 -5 16 -2 10 21 -7 27 -6 27 18 11 23 -15 26 -15 43 3 23 26 38 26 88 3z
m1200 -5 c8 -3 17 -2 19 3 6 10 66 2 66 -9 0 -5 -47 -9 -105 -9 -72 -1 -105 3
-105 10 0 8 -4 8 -15 -1 -14 -11 -35 -6 -35 8 0 9 153 7 175 -2z m-825 -21
c-7 -9 -15 -13 -17 -11 -7 7 7 26 19 26 6 0 6 -6 -2 -15z m110 5 c0 -5 -6 -10
-14 -10 -8 0 -18 5 -21 10 -3 6 3 10 14 10 12 0 21 -4 21 -10z m197 -16 c-3
-3 -12 -4 -19 -1 -8 3 -5 6 6 6 11 1 17 -2 13 -5z m698 -3 c-6 -5 -39 -21 -74
-36 -35 -14 -69 -32 -75 -38 -7 -7 -20 -56 -30 -109 -10 -54 -23 -98 -28 -98
-4 0 -6 10 -3 23 14 61 33 176 32 193 -1 13 4 19 16 18 10 -1 48 11 85 27 70
30 93 36 77 20z m-852 -8 c-7 -2 -19 -2 -25 0 -7 3 -2 5 12 5 14 0 19 -2 13
-5z m687 -8 c0 -9 -9 -15 -25 -15 -14 0 -25 5 -25 11 0 5 -5 7 -12 3 -23 -14
-58 -13 -58 2 0 11 15 14 60 14 47 0 60 -3 60 -15z m-697 -22 c-7 -2 -19 -2
-25 0 -7 3 -2 5 12 5 14 0 19 -2 13 -5z m-773 -23 c-14 -10 -27 -17 -29 -14
-6 5 31 33 44 33 6 1 -1 -8 -15 -19z m-85 -39 c3 -5 1 -13 -5 -16 -15 -9 -43
3 -35 15 8 13 32 13 40 1z m118 -21 c4 -4 -3 -6 -15 -4 -13 1 -39 3 -58 3 -25
1 -31 4 -21 10 15 10 80 3 94 -9z m67 -3 c0 -8 -3 -17 -7 -20 -9 -9 -34 13
-27 24 8 14 34 11 34 -4z m-262 -9 c-7 -19 -38 -22 -38 -4 0 10 9 16 21 16 12
0 19 -5 17 -12z m942 -13 c0 -8 -6 -15 -14 -15 -17 0 -28 14 -19 24 12 12 33
6 33 -9z m-800 -85 c0 -5 -9 -10 -21 -10 -15 0 -19 5 -15 15 4 11 0 15 -11 13
-9 -2 -18 3 -20 10 -3 8 1 10 11 6 12 -5 15 -2 10 12 -5 14 0 12 20 -8 14 -15
26 -32 26 -38z m403 53 c9 -9 -13 -34 -24 -27 -14 8 -11 34 4 34 8 0 17 -3 20
-7z m347 3 c0 -2 -8 -10 -17 -17 -16 -13 -17 -12 -4 4 13 16 21 21 21 13z
m-500 -16 c0 -5 -4 -10 -10 -10 -5 0 -10 5 -10 10 0 6 5 10 10 10 6 0 10 -4
10 -10z m310 -14 c0 -21 -21 -31 -30 -15 -5 7 -6 17 -4 21 9 14 34 9 34 -6z
m150 1 c0 -2 -10 -12 -22 -23 l-23 -19 19 23 c18 21 26 27 26 19z m-395 -100
c4 5 5 2 1 -4 -5 -10 -11 -10 -26 0 -11 6 -20 16 -20 21 0 5 8 2 18 -7 10 -10
22 -14 27 -10z m291 12 c10 -17 -13 -36 -27 -22 -12 12 -4 33 11 33 5 0 12 -5
16 -11z m232 -12 c3 -13 -3 -16 -21 -15 -21 2 -24 5 -16 21 12 21 33 18 37 -6z
m705 16 c-7 -2 -19 -2 -25 0 -7 3 -2 5 12 5 14 0 19 -2 13 -5z m-908 -12 c-3
-5 11 -15 30 -21 19 -6 35 -16 35 -21 0 -12 -1 -12 -44 6 -35 15 -43 25 -29
38 9 10 15 8 8 -2z m127 -35 c6 4 6 -2 -1 -14 -6 -12 -16 -24 -21 -27 -6 -4
-8 -12 -4 -18 3 -7 -1 -4 -8 5 -11 13 -24 15 -58 11 -31 -4 -41 -3 -36 5 4 7
21 12 37 12 16 0 40 9 52 20 12 12 23 16 25 10 2 -5 8 -7 14 -4z m138 -6 c14
-11 33 -20 43 -20 9 0 17 -6 17 -14 0 -30 -21 -25 -61 14 -43 42 -43 54 1 20z
m-360 -3 c0 -2 -12 -14 -27 -28 l-28 -24 24 28 c23 25 31 32 31 24z m1270 -7
c0 -5 -4 -10 -10 -10 -5 0 -10 5 -10 10 0 6 5 10 10 10 6 0 10 -4 10 -10z
m-913 -26 c-3 -3 -12 -4 -19 -1 -8 3 -5 6 6 6 11 1 17 -2 13 -5z m246 -9 c43
-2 86 -9 95 -15 16 -9 -27 -8 -158 4 -19 2 -52 4 -73 5 -24 1 -36 5 -32 11 4
7 24 9 48 6 23 -3 77 -8 120 -11z m-658 -25 c0 -8 -8 -16 -17 -18 -13 -2 -18
3 -18 18 0 15 5 20 18 18 9 -2 17 -10 17 -18z m1305 -6 c0 -14 -21 -19 -33 -7
-9 9 13 34 24 27 5 -3 9 -12 9 -20z m-350 3 c0 -8 -3 -17 -7 -20 -9 -9 -34 13
-27 24 8 14 34 11 34 -4z m-287 -4 c-7 -2 -19 -2 -25 0 -7 3 -2 5 12 5 14 0
19 -2 13 -5z m-773 -96 l-63 -62 59 67 c32 36 61 64 64 62 2 -3 -25 -33 -60
-67z m113 54 c3 -13 1 -18 -9 -14 -7 2 -10 11 -7 19 7 19 10 18 16 -5z m197
-11 c0 -5 -5 -10 -11 -10 -5 0 -7 5 -4 10 3 6 8 10 11 10 2 0 4 -4 4 -10z
m214 -2 c-5 -8 0 -9 14 -6 12 4 20 2 16 -3 -7 -11 -44 -12 -44 -1 0 9 10 22
17 22 2 0 1 -5 -3 -12z m-137 -44 c-3 -3 -12 -4 -19 -1 -8 3 -5 6 6 6 11 1 17
-2 13 -5z m33 -4 c0 -5 -5 -10 -11 -10 -5 0 -7 5 -4 10 3 6 8 10 11 10 2 0 4
-4 4 -10z m-504 -91 c10 -17 -13 -36 -27 -22 -12 12 -4 33 11 33 5 0 12 -5 16
-11z m300 -60 c10 -17 -13 -36 -27 -22 -12 12 -4 33 11 33 5 0 12 -5 16 -11z"/>
<path d="M780 1175 c7 -8 16 -15 21 -15 5 0 9 7 9 15 0 9 -9 15 -21 15 -18 0
-19 -2 -9 -15z"/>
<path d="M2050 1896 c0 -8 5 -18 10 -21 6 -3 10 3 10 14 0 12 -4 21 -10 21 -5
0 -10 -6 -10 -14z"/>
<path d="M1340 1739 c-11 -19 -10 -20 9 -9 12 6 21 15 21 20 0 18 -19 11 -30
-11z"/>
<path d="M1350 1711 c0 -5 7 -14 15 -21 13 -10 15 -9 15 9 0 12 -6 21 -15 21
-8 0 -15 -4 -15 -9z"/>
<path d="M588 1694 c-38 -20 -36 -38 2 -19 17 9 30 20 30 25 0 12 1 12 -32 -6z"/>
<path d="M1396 1684 c-8 -21 -6 -23 17 -15 17 6 17 9 4 19 -12 10 -16 9 -21
-4z"/>
<path d="M1013 1673 c-18 -8 -33 -20 -33 -25 0 -5 -4 -7 -9 -4 -5 3 -20 0 -32
-7 -18 -9 -23 -19 -21 -39 4 -34 18 -36 26 -5 8 34 78 69 137 69 51 0 81 17
32 19 -15 0 -37 2 -48 4 -11 2 -35 -3 -52 -12z"/>
<path d="M1700 1665 c12 -15 30 -12 30 6 0 5 -10 9 -21 9 -18 0 -19 -2 -9 -15z"/>
<path d="M440 1631 c0 -16 19 -23 43 -15 21 7 21 7 2 15 -28 11 -45 11 -45 0z"/>
<path d="M53 1291 c-9 -14 -5 -20 19 -34 17 -10 26 -11 21 -4 -4 6 -6 19 -5
28 4 23 -22 30 -35 10z"/>
<path d="M2157 1104 c-9 -9 20 -49 36 -49 6 -1 11 -7 9 -14 -1 -7 2 -10 8 -6
6 4 0 20 -16 41 -29 37 -28 37 -37 28z"/>
<path d="M2236 1005 c-3 -9 7 -33 23 -56 16 -22 31 -34 33 -28 2 6 -9 25 -25
41 -24 23 -27 31 -17 43 7 9 8 15 2 15 -5 0 -13 -7 -16 -15z"/>
</g>
</svg>
